<svg width="24" height="24" viewBox="0 0 24 24" fill="none" xmlns="http://www.w3.org/2000/svg">
<path d="M3.6875 5.96875C3.6875 5.49633 3.87517 5.04327 4.20922 4.70922C4.54327 4.37517 4.99633 4.1875 5.46875 4.1875C5.94117 4.1875 6.39424 4.37517 6.72828 4.70922C7.06233 5.04327 7.25 5.49633 7.25 5.96875C7.25 6.44117 7.06233 6.89423 6.72828 7.22828C6.39424 7.56233 5.94117 7.75 5.46875 7.75C4.99633 7.75 4.54327 7.56233 4.20922 7.22828C3.87517 6.89423 3.6875 6.44117 3.6875 5.96875ZM8.4375 5.96875C8.4375 5.18139 8.12472 4.42628 7.56797 3.86953C7.01122 3.31278 6.25611 3 5.46875 3C4.68139 3 3.92628 3.31278 3.36953 3.86953C2.81278 4.42628 2.5 5.18139 2.5 5.96875C2.5 6.75611 2.81278 7.51122 3.36953 8.06797C3.92628 8.62472 4.68139 8.9375 5.46875 8.9375C6.25611 8.9375 7.01122 8.62472 7.56797 8.06797C8.12472 7.51122 8.4375 6.75611 8.4375 5.96875ZM12 8.9375C12.6299 8.9375 13.234 9.18772 13.6794 9.63312C14.1248 10.0785 14.375 10.6826 14.375 11.3125C14.375 11.9424 14.1248 12.5465 13.6794 12.9919C13.234 13.4373 12.6299 13.6875 12 13.6875C11.3701 13.6875 10.766 13.4373 10.3206 12.9919C9.87522 12.5465 9.625 11.9424 9.625 11.3125C9.625 10.6826 9.87522 10.0785 10.3206 9.63312C10.766 9.18772 11.3701 8.9375 12 8.9375ZM12 14.875C12.4678 14.875 12.9311 14.7829 13.3633 14.6038C13.7955 14.4248 14.1883 14.1624 14.5191 13.8316C14.8499 13.5008 15.1123 13.108 15.2913 12.6758C15.4704 12.2436 15.5625 11.7803 15.5625 11.3125C15.5625 10.8447 15.4704 10.3814 15.2913 9.94919C15.1123 9.51697 14.8499 9.12424 14.5191 8.79343C14.1883 8.46262 13.7955 8.20021 13.3633 8.02118C12.9311 7.84215 12.4678 7.75 12 7.75C11.5322 7.75 11.0689 7.84215 10.6367 8.02118C10.2045 8.20021 9.81174 8.46262 9.48093 8.79343C9.15012 9.12424 8.88771 9.51697 8.70868 9.94919C8.52965 10.3814 8.4375 10.8447 8.4375 11.3125C8.4375 11.7803 8.52965 12.2436 8.70868 12.6758C8.88771 13.108 9.15012 13.5008 9.48093 13.8316C9.81174 14.1624 10.2045 14.4248 10.6367 14.6038C11.0689 14.7829 11.5322 14.875 12 14.875ZM9.82168 17.25H14.1746C16.1859 17.25 17.8262 18.8271 17.9301 20.8125H6.06621C6.17012 18.8271 7.81035 17.25 9.82168 17.25ZM9.82168 16.0625C7.09043 16.0625 4.875 18.2779 4.875 21.0092C4.875 21.5547 5.3166 22 5.86582 22H18.1379C18.6834 22 19.1287 21.5584 19.1287 21.0092C19.125 18.2779 16.9096 16.0625 14.1783 16.0625H9.82539H9.82168ZM19.125 4.1875C19.5974 4.1875 20.0505 4.37517 20.3845 4.70922C20.7186 5.04327 20.9062 5.49633 20.9062 5.96875C20.9062 6.44117 20.7186 6.89423 20.3845 7.22828C20.0505 7.56233 19.5974 7.75 19.125 7.75C18.6526 7.75 18.1995 7.56233 17.8655 7.22828C17.5314 6.89423 17.3438 6.44117 17.3438 5.96875C17.3438 5.49633 17.5314 5.04327 17.8655 4.70922C18.1995 4.37517 18.6526 4.1875 19.125 4.1875ZM19.125 8.9375C19.9124 8.9375 20.6675 8.62472 21.2242 8.06797C21.781 7.51122 22.0938 6.75611 22.0938 5.96875C22.0938 5.18139 21.781 4.42628 21.2242 3.86953C20.6675 3.31278 19.9124 3 19.125 3C18.3376 3 17.5825 3.31278 17.0258 3.86953C16.469 4.42628 16.1562 5.18139 16.1562 5.96875C16.1562 6.75611 16.469 7.51122 17.0258 8.06797C17.5825 8.62472 18.3376 8.9375 19.125 8.9375ZM19.7188 11.3125C21.359 11.3125 22.6875 12.641 22.6875 14.2812C22.6875 14.6078 22.9547 14.875 23.2812 14.875C23.6078 14.875 23.875 14.6078 23.875 14.2812C23.875 11.9842 22.0158 10.125 19.7188 10.125H16.6016C16.698 10.5035 16.75 10.9043 16.75 11.3125H19.7188ZM7.25 11.3125C7.25 10.9043 7.30195 10.5035 7.39844 10.125H4.28125C1.98418 10.125 0.125 11.9842 0.125 14.2812C0.125 14.6078 0.392188 14.875 0.71875 14.875C1.04531 14.875 1.3125 14.6078 1.3125 14.2812C1.3125 12.641 2.64102 11.3125 4.28125 11.3125H7.25Z" fill="#020B12"/>
</svg>
